<?xml version="1.0" encoding="utf-8"?>
<!-- Generator: Adobe Illustrator 21.1.0, SVG Export Plug-In . SVG Version: 6.00 Build 0)  -->
<svg version="1.1" id="Layer_1" xmlns="http://www.w3.org/2000/svg" xmlns:xlink="http://www.w3.org/1999/xlink" x="0px" y="0px" width="180px" height="67px"
	 viewBox="0 0 180 67" style="enable-background:new 0 0 180 67;" xml:space="preserve">
<style type="text/css">
	.st0{fill:#2E3192;}
	.st1{fill:#D1D3D4;}
</style>
<g>
	<path id="XMLID_1521_" class="st0" d="M86.1,24.6c-0.1,0.1-0.2,0.1-0.3,0.3C84.6,25.1,83,25,81.6,25c-1,0.1-1.9,0.1-2.4,0.4
		c-0.7,0.8-1.4,1.5-2.1,2.3c0.1-0.4,0.1-0.8,1.5-6.3c0.9-4.3,1.6-9.1,3-13.1h0.1c0.1,0,0.1,0,0.3,0c1.7,4.8,3,10.3,4.3,15.6
		C86.1,24.1,86.1,24.4,86.1,24.6z M65.6,4.2c0.8,0.4,1.6,1.4,2.7,1.4C69,4.8,71,1.8,70.6,1C64.7,0.6,57-1.5,52.7,3.7
		c-2.2,3.8-2.2,7.3-2.5,11.9c0,6.4-0.4,13,2.6,19c1.2,1.5,2.6,2.4,4.5,3.1c1.5,0.3,1.5,0.3,3.4,0.6c2.4-0.1,5.1-0.4,7.6-0.8
		c0.7-0.7,1.1-3.1,1-3.9c-0.1,0-0.3,0-0.4,0c-3.3,1.6-7.5,1.7-10.4-0.1c-2-2.6-1.9-6-2.1-8.9c-0.1-5.9-0.7-12.3,0.7-17.9
		C58.9,3.2,62.1,3.3,65.6,4.2z M150.2,34.8c-1.3,0-2.6,0-3.9,0c-2.2-0.3-1.9-0.1-2.2-2.1c-0.4-10.4-0.3-20.7,0.6-30.9
		c-0.1-0.1-0.1-0.3-0.1-0.4c-0.8-0.1-0.8-0.1-5-0.3c-0.8,0.1-1.1-0.1-1.4,0.6c0.6,11.7,0.9,23.7,0.1,35.7c0.3,0.6,2,0.4,2.8,0.4
		c10.5,0,10.5,0,11.3-0.1c0.7-0.6,1.3-3.1,1-3.4C152.9,34.3,151.8,34.5,150.2,34.8z M178,35.5c-2.6-10.5-5.2-21-7.2-31.3
		c-0.1-0.8-0.1-1.7-0.1-2.6c-0.1-0.1-0.3-0.2-0.4-0.3c-1.5,0-6.6-0.6-7.2,0.4c0,1.4-0.1,2.9-0.2,4.4C161,15,159.1,24,157.2,33
		c-0.3,1.1-1.3,3.3-1.3,4.5c0.1,0.1,0.5,0.3,1,0.3c3.2-0.1,2.7,0.1,2.7-2.7c1.7-9.1,3.7-18.1,5.9-26.9c0.1-0.1,0.1-0.1,0.2-0.1
		c0.1,0.1,0.2,0.2,0.3,0.3c1.5,5,2.7,10.7,4,16c-0.2,0.9-1,0.5-6.3,0.7c-0.8,0.4-2.4,1.7-2.4,2.6c2.6,0.9,7.6-1.9,9.6,0.6
		c0.5,1.7,1.1,3.8,1.5,5.7c0.3,3.3,0.3,3.3,0.4,3.4c1.2,0.4,4.3,0.4,5.7,0C178.8,36.8,178.2,35.8,178,35.5z M132,1.8
		c-0.1-0.1-0.1-0.1-0.1-0.2C131,1,126.2,1,125.7,1.8c0.1,0.9,0.1,1.9,0.3,2.7c0.4,11,0.7,21.9-0.2,33.1c0.3,0.3,0.8,0.3,1.3,0.4
		c1.6,0,3.3-0.1,4.8-0.1c0.2-0.1,0.2-0.1,0.4-0.3C131.1,25.8,131.2,13.6,132,1.8z M114.6,26.5c-0.2,2-0.3,4.1-1.3,6.2
		c-1,1.5-2.2,1.9-3.5,2.1c-0.8,0.1-1.7,0.1-2.6,0.1c-0.8,0-1.7-0.1-2.2-0.6c-0.1-0.5-0.1-0.5-0.3-24c0.1-6-0.4-5.6,5-5.5
		c0.1,0,0.3,0,0.4,0c2.6,0.6,3.1,1.6,4,4.4C114.9,14.9,114.9,20.5,114.6,26.5z M111.3,1.1c-0.6,0-1,0-1.5,0c-1.9-0.1-3.4-0.1-11.2,0
		c-0.1,0.1-0.2,0.1-0.3,0.2c-0.1,1.1,0.3,2.6,0.6,4C99,8.8,99,8.8,99.3,23.5c0,4.5,0,9.4-0.4,14.1c0.1,0.1,0.2,0.3,0.8,0.4
		c3.4-0.1,6.8-0.1,10.2-0.1c0.4,0,0.8,0,1.1,0c1.2-0.1,2.6-0.3,3.9-0.8c0-0.1,0-0.1,0-0.1c2-0.6,3.3-2.3,4.2-4.1
		c1.9-5.6,1.7-11.9,1.7-17.5c-0.1-2.9-0.6-5.4-1.1-8C118.2,3,115.7,1.6,111.3,1.1z M87.5,7.8c-0.3-1-0.4-2-0.6-3
		C86.7,2,86.7,2,86.7,1.8c-0.8-0.2-3.2-0.4-5.1-0.3c-1.3,0-2.4,0.1-2.6,0.4c-0.1,1-0.1,1.9-0.1,2.9c-0.6,5-2,10.2-3.1,15.3
		c-1,5.2-2,10.1-3.3,15.4c-0.3,0.8-0.7,1.5-0.6,2.5c0.1,0,0.3,0.1,0.4,0.1c1,0,1.9-0.1,3-0.3c0.1-3.4,0.9-6.6,1.5-9.9
		c2,0,3.4,0,4.6,0c3.5,0.1,3.8,0.1,5.1,0.1c0.1,0.1,0.3,0.2,0.5,0.3c1,3,1.7,6.1,2.1,9.4c0.8,0.6,5.5,0.3,5.9,0.1
		c0.1-0.8-0.4-1.6-0.5-2.1C92.2,26.5,89.8,17.1,87.5,7.8z"/>
	<path id="XMLID_1500_" class="st0" d="M83.9,48.5c-0.3,0-0.6,0-0.8,0c-0.5,0-1,0.1-1.5,0.1c-0.1-3.8-0.1-3.8,0-4.3
		c0.3-0.1,1-0.2,1.5-0.1c0.4,0.1,0.8,0.2,1.1,0.4C84.6,45.3,85.1,47.8,83.9,48.5z M84.6,49.5c0.4-0.3,1-0.6,1.5-0.8
		c1.3-1.6,0.8-4.7-0.8-5.5c-0.8-0.1-1.5-0.1-2.2-0.1c-1.3,0-2.7,0-4,0c0.6,4.2,0.4,8.7,0.2,13.2c0.1,0.1,0.1,0.1,0.2,0.1
		c0.6-0.1,1.3-0.1,1.9-0.1c0.1-0.6,0-1.8,0-6.4c0.7-0.1,1.2,0.1,1.6,0.3c1.5,1.1,0.5,4.7,2,6.1c0.7,0,1.4,0,2.2,0c0-0.1,0-0.1,0-0.3
		C85.5,54,86.6,50.8,84.6,49.5z M73.1,51.3c-0.4,0-0.8,0-1.2,0.1c-0.1-0.2,0.3-1.9,0.4-2.3c0.4-3,0.4-3,0.5-3.1
		c0,0.1,0.1,0.4,0.3,0.8c0.4,1.4,1.1,4.1,1.1,4.5C73.9,51.3,73.5,51.3,73.1,51.3z M74.5,43c-0.4,0-0.9,0-1.4,0
		c-0.6-0.1-1.1-0.1-1.5,0.1c-0.4,3.9-1.4,8-2.2,12.1c-0.1,0-0.1,0-0.2,0c0,0.1,0,0.1,0.1,0.1c-0.2,0.4-0.2,0.4-0.3,1
		c0.1,0,0.2,0,0.3,0.1c0.6,0,1.1,0,1.7,0c0.1-1.3,0.3-2.5,0.6-3.7c0.6,0,0.8,0,1.5,0c0.3,0,0.8,0,1.5,0.1c0.4,0.8,0.8,2.3,1,3.4
		c0.2,0.2,1.7,0.1,2.2,0.1c-1.1-3.9-2.1-7.8-3.2-11.7C74.6,44,74.5,43.5,74.5,43z M65.1,43c-0.2,1.7,0.1,3.6,0,5.5
		c-0.8,0.4-2.7,0.1-3.4,0.1c0-1.9,0-3.8,0-5.6c-0.8,0-1.6,0-2.4,0c0.1,2,0.1,2,0.3,5.4c0,6.9-0.1,7.5-0.1,8c0.8,0,1.5,0,2.3,0
		c-0.1-2-0.1-4-0.1-6.1c1-0.2,2.3-0.2,3.4-0.2c0.1,0.3,0.1,0.3,0.1,6.3c0.8,0,1.5,0,2.2,0c-0.1-4.5-0.3-9,0.1-13.3
		C67.1,43,67.1,43,65.1,43z M54.3,48.7c-0.4,0-0.8,0-1.3,0c-0.6-0.4-0.3-3.4-0.1-4.3c0.6,0,1.1-0.1,1.5,0c1.7,0,1.7,0.4,1.7,3.1
		C55.7,48.5,55.1,48.7,54.3,48.7z M55.7,43c-0.5,0-1,0-1.5,0c-1.3,0-2.6-0.1-3.9-0.1c0.4,4.3,0.3,8.9,0.3,13.4
		c0.1,0.1,0.1,0.1,0.2,0.1c0.6,0,1.3,0,2,0c0.1-0.8,0-2.2,0-6.6c0.5,0,1-0.1,1.5-0.1c0.4-0.1,1-0.1,1.4-0.1c1.5-0.4,1.8-0.4,2.4-2
		C58.2,45,58.3,43.5,55.7,43z M131.7,43c0.1,3.5,0.1,7.1,0.1,10.7c-0.5,1.7-2.7,1.7-3.4,0.4c-0.1-0.9-0.1-0.9,0-11.1
		c-0.8,0-1.5,0-2.2,0.1c0.1,3.7,0.1,7.5,0.2,11.2c0.4,1.6,1.3,1.7,2.9,2c2-0.1,4,0.1,4.5-2.4c0-3.7,0-7.5,0.2-10.9
		C133.3,42.8,132.1,42.7,131.7,43z M167.3,54.5c-0.4-4-0.3-8.1,0.1-11.9c-0.7,0-1.9-0.1-2.4,0.1c0,4.4,0.1,8.8,0.1,13.3
		c3.8-0.1,3.8-0.1,5.2-0.2c0.3-0.6,0.3-0.6,0.4-1.1C169.9,54.8,167.6,55,167.3,54.5z M159.2,51.3c-0.3,0-0.6,0-1.1,0
		c-0.1-0.1-0.1-0.1-0.1-0.1c0.4-1.9,0.8-3.7,1.1-5.5h0.1c0.1,0,0.1,0,0.1,0c0.4,1.7,1,3.4,1.2,5.4C160.3,51.2,160.3,51.2,159.2,51.3
		z M161,42.8c-0.6-0.1-1.2-0.1-1.8-0.1c-0.4,0-0.8,0.1-1.1,0.3c-0.3,3.8-1.6,8-2.5,11.9c-0.1,0.4-0.3,0.6-0.3,1.1
		c0.2,0,0.4,0.1,0.6,0.1c0.4,0,0.8,0,1.2-0.3c0-1.3,0.3-2.2,0.5-3.3c0.5-0.1,1-0.1,1.5-0.1c0.6,0,1.1,0,1.7,0c0.3,1,0.6,2.2,0.8,3.5
		c0.8,0,1.5,0,2.2,0c-1-3.9-1.9-7.7-2.8-11.6C161.1,43.8,161.1,43.3,161,42.8z M173.3,46.3c0-2.3,1-2.6,3.2-2.6
		c0.6,0.1,1.1,0.3,1.3,0.3c0.1-0.4,0.4-1,0.4-1.4c-1.6-0.1-3.2-0.3-4.6,0.1c-2.1,1.3-2,2.6-2,5c0.8,1.7,2.4,2.3,4.3,3.3
		c0.9,1,0.8,1.8,0.3,3.1c-1.5,1.1-2.7,0.4-4-0.1c-0.3,0.6-0.6,1-0.7,1.8c0.5,0.1,1.1,0.1,1.6,0.2c2.7-0.1,4.8,0.3,5.4-3
		c0-0.5,0-1,0-1.5C177.9,48.3,174,48.8,173.3,46.3z M104.5,51.3c-0.4,0-0.8,0-1.3,0c0.4-1.8,0.8-3.6,1.2-5.4c0,0.1,0.1,0.2,0.1,0.3
		c1.2,4.7,1.3,4.7,1.3,5C105.4,51.3,104.9,51.3,104.5,51.3z M106.1,43c-0.6,0-1.1,0-1.6,0c-0.4,0-0.8,0-1.2,0
		c-0.4,3.8-1.5,8-2.4,12.1c-0.2,0.4-0.5,0.8-0.3,1.1c1.3,0,1.3,0,1.5-0.1c0.1-0.2,0.1-0.2,0.1-1.1c0.1-0.8,0.3-1.5,0.5-2.3
		c0.3-0.1,1-0.1,1.7-0.2c0.6,0,1.3,0,1.6,0.2c0.2,0.6,0.4,1.3,0.6,2c0.1,1.3,0.1,1.3,0.3,1.5c0.7,0,1.4,0,2.1,0c0-0.3,0-0.3-0.6-2.7
		C107.7,50,106.3,46.3,106.1,43z M148.3,44.3c-0.9,2.5-0.8,5-0.8,7.9c0.3,2.4,0.4,3.2,3.1,4c0.6-0.1,1.1-0.1,1.7-0.1
		c1.7-0.2,1.5-0.1,1.9-1.6c-0.4,0.1-0.8,0.2-1.1,0.3c-2.8,0.2-3.2-0.1-3.4-2.6c0-2.6-0.4-6,0.9-8.2c1.1-0.7,2.2-0.4,3.4,0.3
		c0.5-0.3,0.8-1,1.1-1.6C152.7,42.7,149.7,42,148.3,44.3z M143.9,42.8c0.1,4.3-0.1,8.7,0.1,13.1c0.7,0,1.4,0,2.1-0.1
		c0.1-0.6,0-1.4,0-10.8c0.1-0.8,0.1-1.5,0.2-2.4C145.6,42.7,144.1,42.5,143.9,42.8z M115.4,44c0.3,0.2,0.5,0.4,1,0.4
		c0.8-1.1,0.8-1.1,0.9-1.6c-2.3-0.3-5-0.8-6.6,1c-1.1,2.3-0.8,5.2-0.8,7.8c0.6,3.1,0.3,3.9,3.8,4.7c0.9-0.1,1.8-0.3,2.7-0.4
		c0.3-0.6,0.3-0.6,0.4-1.4c-0.3,0.1-0.3,0.1-1.3,0.4c-3.4,0-3.1-1.1-3.3-3.9c0-1.5,0-2.9,0-4.3C112.5,44.5,112.5,43.5,115.4,44z
		 M124.8,44c0.2-0.4,0.3-0.8,0.5-1.1c-2.2-0.1-4.5-0.1-6.8-0.1c0.2,4.3,0.2,8.7-0.2,13.2c0.1,0,0.2,0.1,0.3,0.1
		c1.9-0.1,3.8-0.1,5.7-0.1c0.2-0.4,0.5-0.9,0.5-1.3c-0.7,0-4,0.3-4.1-0.1c-0.1-4.7-0.1-4.7,0-5c1.1-0.1,2.2-0.1,3.3-0.1
		c0.4-0.3,0.6-1.1,0.6-1.5c-1.2,0-3.1,0.1-4-0.1c0-1.4-0.1-2.8,0.2-4C122,43.8,123.4,44.2,124.8,44z M135.2,44c0.8,0,1.7,0,2.6,0
		c0.2,10.7,0.1,11.5,0.1,11.9c0.1,0,1.8,0.1,2-0.1c-0.1-1.9-0.1-1.9,0-11.7c0.6,0,1.3,0,2,0.1c0.3-0.5,0.6-1.1,0.8-1.5
		c-2.4,0.1-4.7,0.1-7.1,0.2C135.4,43.2,135.2,43.3,135.2,44z M99,43c-1-0.4-2.4-0.1-3.3-0.1c-0.3,3.1-1.3,6.4-2.1,9.5
		c-0.7-3.1-1.5-6.3-1.9-9.3c0,0.1,0,0,0-0.1c-1.1,0-2.2,0-3.2,0c0.1,4.2,0.4,8.8,0.1,13.2l0.1,0.1c0.4-0.1,0.9-0.1,1.4-0.1
		C90,55.3,90,55.3,90,45.8c0.8,3.3,2,6.8,2.4,10.3c0.4,0.1,1.5,0.1,2,0c0.7-3.6,1.3-7,2.4-10.3c0.4,2.9,0.4,7,0.1,10.3
		c0.3,0.1,1.7,0.1,2.3,0C98.8,51.7,99,47.3,99,43z"/>
	<path id="XMLID_1491_" d="M77.5,65.6c-0.1-1.5,0-2.9,0-4.3c-0.8,0-1.5,0.1-2.2,0.1c0,1.8,0,3.6,0,5.4c2-0.1,4,0,6.1,0
		c-0.1-0.4,0-0.8-0.1-1.1C80.2,65.6,78.8,65.6,77.5,65.6z M112.7,66.4c0.8,0,1.5-0.1,2.2-0.1c0-1.9,0-3.6,0-5.4c-0.8,0-1.5,0-2.3,0
		C112.7,62.8,112.7,64.7,112.7,66.4z M87.4,61.2c0,1.8,0.1,3.6,0.1,5.5c0.8-0.1,1.5-0.1,2.2-0.1c0-1.8-0.1-3.6-0.1-5.4
		C88.9,61.2,88.1,61.2,87.4,61.2z M152.5,64.1c-0.6,0.6-1.1,0.8-1.7,0.9c-0.5,0.1-1,0.1-1.7,0.1c-0.1-3.1-0.1-3.1-0.1-3.4
		c0.4,0,1.1,0,1.7,0.1C152,61.8,153,62.3,152.5,64.1z M155,62.3c-0.8-1.4-2.5-1.8-4.2-1.9c-1.5-0.1-3.1,0.1-4.1,0.1
		c0.1,1.8,0.1,3.6,0.1,5.5c1.3-0.1,2.7-0.1,4-0.1c0.2,0,0.4,0,0.6,0C153.8,65.6,155.4,65.2,155,62.3z M120.8,61.8
		c0.8,0,1.6-0.1,2.6,0.1c0,1.5,0.1,3,0.1,4.5c0.7-0.1,1.5-0.2,2.2-0.2c0-3.4,0-3.4,0.1-4.3c0.8-0.1,1.7-0.1,2.5-0.1
		c0-0.3,0-0.6,0.1-1c-2.6,0-5,0-7.6,0.1C120.8,61.3,120.8,61.5,120.8,61.8z M140.5,61.7c0-0.3-0.1-0.6-0.1-1c-2.1,0-4.2,0-6.3,0
		c0,1.9,0.1,3.7,0.1,5.5c2.1,0,4.2,0,6.3-0.1c0-0.3,0.1-0.7,0.1-1c-1.3,0-2.7,0-4,0c0-0.4,0-0.8,0-1.1c1.2-0.1,2.4-0.1,3.6-0.1
		c0.1-0.3,0-0.8,0-1c-1.2,0-2.4,0-3.6,0c0-0.4,0-0.7,0-1.1C136.8,61.8,136.8,61.8,140.5,61.7z M101.2,64.8c-1.3-3.4-1.3-3.4-1.5-3.6
		c-1.1,0-2.4,0-3.6,0c0,1.8,0.1,3.6,0.1,5.4c0.6,0,1.3,0,1.9,0c0-3.5,0-3.5,0.1-4.5c0.6,1.5,1.2,2.9,1.9,4.5c0.6,0,1.3,0,2,0.1
		c1.3-3.2,1.3-3.2,2-4.5c0,1.5,0,3,0.1,4.5c0.6-0.1,1.3-0.1,1.9-0.1c0-1.8,0-3.6,0-5.4c-1.2,0-2.4,0.1-3.6,0.1
		C102.1,62.3,101.6,63.5,101.2,64.8z"/>
	<g id="XMLID_1483_">
		<path id="XMLID_1488_" d="M13.4,56.7c-0.8-0.1-1.6-0.1-2.2-0.1C7.8,56.3,3.9,56.3,1,55.3c-1.7-1.3-0.6-1.8,0.8-2.2
			c10.3-1.7,21.3-1.7,31.9-0.9c1.3,0.2,2.5,0.3,3.8,0.5c1,0.3,2.2,0.2,2.2,1.7c-0.5,0.5-0.9,0.6-1.4,0.8
			C30.3,57,21.3,56.5,13.4,56.7z M38.1,13.3c0.9,2.3,1.5,4.8,1.5,7.4c0,10.8-8.9,19.5-19.8,19.5S0,31.5,0,20.6
			c0-2.6,0.5-5.1,1.5-7.4l2.8-0.3l-1.5-2.4c3.5-5.6,9.8-9.4,17-9.4s13.5,3.8,16.9,9.4l-1.5,2.4L38.1,13.3z"/>
		<path id="XMLID_1484_" class="st1" d="M19.8,26.9c4.6-14.8,17.4-12.4,17.4-12.4c0.7,1.9,1.1,4,1.1,6.1c0,10.1-8.3,18.3-18.5,18.3
			S1.3,30.6,1.3,20.5c0-2.2,0.4-4.2,1.1-6.1C2.4,14.4,15.2,12.1,19.8,26.9z M19.8,22.6c5.7-12.1,15.4-12.1,15.4-12.1
			c-3.3-4.9-9-8.1-15.4-8.1c-6.4-0.1-12.1,3.2-15.4,8C4.4,10.4,14,10.6,19.8,22.6z M16.1,55.3c-4.4-0.2-9.2-0.1-13.3-0.9
			c0-0.1,0-0.1,0-0.2c9.4-1.3,19.2-1.4,28.9-0.9c3.7,0.3,3.7,0.3,5.7,0.6c0,0.1,0,0.1,0,0.2C30.4,55.5,22.9,55.3,16.1,55.3z"/>
	</g>
</g>
</svg>
