<?xml version="1.0" encoding="utf-8"?>
<!-- Generator: Adobe Illustrator 19.0.0, SVG Export Plug-In . SVG Version: 6.00 Build 0)  -->
<svg version="1.1" id="Layer_1" xmlns="http://www.w3.org/2000/svg" xmlns:xlink="http://www.w3.org/1999/xlink" x="0px" y="0px" width="120px" height="120px"
	 viewBox="0 0 120 120" style="enable-background:new 0 0 120 120;" xml:space="preserve">
<style type="text/css">
	.st0{fill-rule:evenodd;clip-rule:evenodd;fill:#F0F0F0;}
	.st1{fill:none;stroke:#333085;stroke-width:1.5;stroke-linecap:round;stroke-linejoin:round;stroke-miterlimit:10;}
</style>
<path id="XMLID_11_" class="st0" d="M59.9,80.3c14.9-47.8,56.5-40.1,56.5-40.1C118.6,46.4,120,53,120,60c0,32.6-26.9,59.1-60,59.1
	C26.9,119.1,0,92.6,0,60c0-7,1.3-13.7,3.6-19.9C3.6,40.1,45.1,32.4,59.9,80.3z M59.9,66.4c18.6-39.1,50-39.1,50-39.1
	C99.1,11.3,80.9,0.9,60,0.9c-20.8,0-39.1,10.4-49.9,26.3C10.1,27.2,41.3,27.3,59.9,66.4z"/>
<g>
	<path id="XMLID_7_" class="st1" d="M31.3,53.2l-1-20.9c0,0,2.4-6.6,10.1-5l3.5,7.8c0,0,2.4-15.4,12.9-19.4s19,9.1,19,9.1
		s3.5-1.5,4.1-1.2c0.6,0.3,1.5,8.5,1.5,8.5S69.6,38.4,69,43.5s-1.8,17.8,17.9,15.1c0,0,10.1,33.7-3.5,44S34.4,86.9,30.3,71
		s7.4-32,13.7-35.3c0,0-2,19.3,4.2,23c0,0,4.9-8.4,6.8-13.2S63.5,30,75.9,24.9"/>
	<path id="XMLID_6_" class="st1" d="M48.3,58.7c0,0-9.8,13-17.9,12.4"/>
	<path id="XMLID_5_" class="st1" d="M55.9,43.5c0,0-4-13.3,2.7-17.1s11.1,1.7,11.1,1.7"/>
	<path id="XMLID_4_" class="st1" d="M78.9,33.7c0,0,1.8,5.9,0,11.8"/>
	<path id="XMLID_3_" class="st1" d="M71.2,39.5c0,0,12.5,8.6,15.7,19.1"/>
</g>
</svg>
