<?xml version="1.0" encoding="utf-8"?>
<!-- Generator: Adobe Illustrator 19.0.0, SVG Export Plug-In . SVG Version: 6.00 Build 0)  -->
<svg version="1.1" id="Layer_1" xmlns="http://www.w3.org/2000/svg" xmlns:xlink="http://www.w3.org/1999/xlink" x="0px" y="0px" width="120px" height="120px"
	 viewBox="0 0 120 120" style="enable-background:new 0 0 120 120;" xml:space="preserve">
<style type="text/css">
	.st0{fill-rule:evenodd;clip-rule:evenodd;fill:#F0F0F0;}
	.st1{fill:none;stroke:#333085;stroke-width:1.5;stroke-linecap:round;stroke-linejoin:round;stroke-miterlimit:10;}
	.st2{fill:#332685;}
</style>
<path id="XMLID_11_" class="st0" d="M59.9,80.3c14.9-47.8,56.5-40.1,56.5-40.1C118.6,46.4,120,53,120,60c0,32.6-26.9,59.1-60,59.1
	C26.9,119.1,0,92.6,0,60c0-7,1.3-13.7,3.6-19.9C3.6,40.1,45.1,32.4,59.9,80.3z M59.9,66.4c18.6-39.1,50-39.1,50-39.1
	C99.1,11.3,80.9,0.9,60,0.9c-20.8,0-39.1,10.4-49.9,26.3C10.1,27.2,41.3,27.3,59.9,66.4z"/>
<path id="XMLID_8_" class="st1" d="M57.7,41.1c-3.2-4.8-5.7-7.8-11.2-6.7c-6.6,1.4-13.9,13.9-19.2,21.3S15,66.5,15,66.5l13.2,29.9
	c0,0,5.9-2.8,15-2.1s26.8-2.1,33.1-6.1c6.3-4,8.6-10.5,3.3-14.3"/>
<path id="XMLID_7_" class="st1" d="M45.7,47l49.7-23c2.8-1.2,6,0.2,7.1,3l1.4,3.4c1,2.4,0.1,5.1-1.9,6.5c-0.3,0.2-0.7,0.4-1.1,0.6
	l-6.3,2.6L63.2,53.3"/>
<path id="XMLID_6_" class="st1" d="M71.6,49.9l3.9-1.8c2.5-1,5.4,0.2,6.4,2.7l0.6,2c1,2.5-0.2,5.4-2.7,6.4l-11.5,5.1"/>
<path id="XMLID_5_" class="st1" d="M72.1,62.6l4.4-2c2.8-1.2,6,0.2,7.2,3l0.7,2.2c1.2,2.8-0.2,6-3,7.2l-13,5.7"/>
<path id="XMLID_4_" class="st2" d="M94.8,40.1c-1.4-0.9-2.4-2.4-2.4-4.2c0-2.7,2.2-4.9,4.9-4.9s4.9,2.2,4.9,4.9l-0.3,1.1L94.8,40.1z
	"/>
<path id="XMLID_3_" class="st2" d="M99.8,43.2c0,0-2,5-3.4,6.7s-4.7,11.4,3.4,11.5c8.1-0.1,4.8-9.7,3.4-11.5S99.8,43.2,99.8,43.2z"
	/>
</svg>
