<?xml version="1.0" encoding="UTF-8"?>
<!-- Generator: Adobe Illustrator 19.0.0, SVG Export Plug-In . SVG Version: 6.00 Build 0)  -->
<svg version="1.1" id="Layer_1" xmlns="http://www.w3.org/2000/svg" xmlns:xlink="http://www.w3.org/1999/xlink" x="0px" y="0px" width="70px" height="98px" viewBox="0 0 70 98" style="enable-background:new 0 0 70 98;" xml:space="preserve">
<style type="text/css">
	.st0{fill:#D1D3D4;}
</style>
<g id="XMLID_19_">
	<path id="XMLID_503_" d="M23.6,97.7c-1.5-0.2-2.8-0.2-4-0.2c-5.8-0.3-12.7-0.5-17.9-2c-3.1-2.3-1-3.2,1.5-4   c18.2-2.9,37.6-2.9,56.2-1.6c2.3,0.3,4.4,0.6,6.7,0.9c1.8,0.5,3.8,0.3,3.8,3.1c-0.8,0.8-1.6,1.1-2.5,1.5   C53.4,98.4,37.6,97.6,23.6,97.7z M67.2,21.4c1.7,4,2.6,8.4,2.6,13c0,19-15.6,34.4-34.9,34.4C15.6,68.7,0,53.3,0,34.4   c0-4.6,0.9-9,2.6-13l5-0.5L5,16.6C11.1,6.6,22.2,0,34.9,0c12.6,0,23.7,6.6,29.8,16.6l-2.6,4.3L67.2,21.4z"/>
	<path id="XMLID_499_" class="st0" d="M34.9,45.4c8.1-26,30.7-21.8,30.7-21.8c1.2,3.4,2,7,2,10.8C67.6,52.1,53,66.5,35,66.5   S2.4,52.1,2.4,34.4c0-3.8,0.7-7.4,1.9-10.8C4.2,23.6,26.8,19.4,34.9,45.4z M34.9,37.8C45,16.6,62,16.6,62,16.6   C56.2,7.9,46.3,2.2,34.9,2.2c-11.3,0-21.3,5.7-27.1,14.3C7.8,16.5,24.8,16.6,34.9,37.8z M28.4,95.5c-7.8-0.3-16.2-0.2-23.4-1.6   c0-0.2,0-0.2,0-0.3c16.6-2.4,33.8-2.5,50.9-1.6c6.4,0.6,6.4,0.6,10,1.1c0,0.1,0,0.1,0,0.3C53.6,95.6,40.4,95.4,28.4,95.5z"/>
</g>
</svg>