<?xml version="1.0" encoding="utf-8"?>
<!-- Generator: Adobe Illustrator 19.0.0, SVG Export Plug-In . SVG Version: 6.00 Build 0)  -->
<svg version="1.1" id="Layer_1" xmlns="http://www.w3.org/2000/svg" xmlns:xlink="http://www.w3.org/1999/xlink" x="0px" y="0px" width="120px" height="120px"
	 viewBox="0 0 120 120" style="enable-background:new 0 0 120 120;" xml:space="preserve">
<style type="text/css">
	.st0{fill-rule:evenodd;clip-rule:evenodd;fill:#F0F0F0;}
	.st1{fill:none;stroke:#333085;stroke-width:1.5;stroke-linecap:round;stroke-linejoin:round;stroke-miterlimit:10;}
</style>
<path class="st0" d="M59.9,80.3c14.9-47.8,56.5-40.1,56.5-40.1C118.6,46.4,120,53,120,60c0,32.6-26.9,59.1-60,59.1
	C26.9,119.1,0,92.6,0,60c0-7,1.3-13.7,3.6-19.9C3.6,40.1,45.1,32.4,59.9,80.3z M59.9,66.4c18.6-39.1,50-39.1,50-39.1
	C99.1,11.3,80.9,0.9,60,0.9c-20.8,0-39.1,10.4-49.9,26.3C10.1,27.2,41.3,27.3,59.9,66.4z"/>
<g>
	<path id="XMLID_5_" class="st1" d="M71.2,19.8c0,0-0.4,8.5,0.8,10.4s2.7,4.4,10.2,5.6s21.7,5.1,22.8,19.6
		c1.1,14.5-5.2,33.3-24.6,41.8S38.4,94,37.6,87.6c0,0-1.7-2.8-5.2-0.7s-7.6,5.2-7.6,5.2"/>
	<path id="XMLID_4_" class="st1" d="M15,86.5c0,0,6.3-10.6,12.2-11s10.1-3,12.6-4.2c2.4-1.2,9.4-2.6,12.2-1.7s11.9-1,15.9-7.5
		s-0.2-16.6-4.5-20.9c-4.4-4.4-5.6-14.7-4.7-21.3"/>
	<path id="XMLID_3_" class="st1" d="M94.2,68.7c0,0-3.2,12.2-11.3,17.8s-30,4.9-36.3-0.9c0,0-2.3-6.3-3.4-6.1s1.1-2.2,7-1.3
		c5.9,0.9,14.6-1.4,19.4-4.1C74.2,71.4,79.8,65.8,94.2,68.7z"/>
</g>
</svg>
