<?xml version="1.0" encoding="utf-8"?>
<!-- Generator: Adobe Illustrator 19.0.0, SVG Export Plug-In . SVG Version: 6.00 Build 0)  -->
<svg version="1.1" id="Layer_1" xmlns="http://www.w3.org/2000/svg" xmlns:xlink="http://www.w3.org/1999/xlink" x="0px" y="0px" width="120px" height="120px"
	 viewBox="0 0 120 120" style="enable-background:new 0 0 120 120;" xml:space="preserve">
<style type="text/css">
	.st0{fill-rule:evenodd;clip-rule:evenodd;fill:#F0F0F0;}
	.st1{fill:none;stroke:#333085;stroke-width:1.5;stroke-linecap:round;stroke-linejoin:round;stroke-miterlimit:10;}
</style>
<path id="XMLID_11_" class="st0" d="M59.9,80.3c14.9-47.8,56.5-40.1,56.5-40.1C118.6,46.4,120,53,120,60c0,32.6-26.9,59.1-60,59.1
	C26.9,119.1,0,92.6,0,60c0-7,1.3-13.7,3.6-19.9C3.6,40.1,45.1,32.4,59.9,80.3z M59.9,66.4c18.6-39.1,50-39.1,50-39.1
	C99.1,11.3,80.9,0.9,60,0.9c-20.8,0-39.1,10.4-49.9,26.3C10.1,27.2,41.3,27.3,59.9,66.4z"/>
<g>
	<path id="XMLID_5_" class="st1" d="M97.5,63.9c0,0,1.4-7.8-3.7-10c-5-2.2-12.4-2.9-12,3.4c0.4,6.3,12.5,14.7,20.4,2.3
		c0,0,4.1-7.1,2.5-14.5c-1.6-7.4-6-11.8-27.8-10.5"/>
	<path id="XMLID_4_" class="st1" d="M22.5,63.9c0,0-1.4-7.8,3.7-10c5-2.2,12.4-2.9,12,3.4s-12.5,14.7-20.4,2.3c0,0-4.1-7.1-2.5-14.5
		s6-11.8,27.8-10.5"/>
	<path id="XMLID_3_" class="st1" d="M60,91.7c-9.9-0.6-9.9-11.7-9.9-11.7C47,73,49.5,67.8,49.5,65.2c0-2.5-3.7-12.2-4.1-17.3
		s-3.8-2.8-2.3-10.7c1.7-8.9,16.9-8.9,16.9-8.9s16.3,0,16.9,8.9c0.5,8-1.9,5.6-2.3,10.7c-0.4,5-4.1,14.8-4.1,17.3
		c0,2.5,2.5,7.8-0.6,14.7C69.9,79.9,69.9,91.1,60,91.7z"/>
</g>
</svg>
