<?xml version="1.0" encoding="utf-8"?>
<!-- Generator: Adobe Illustrator 19.0.0, SVG Export Plug-In . SVG Version: 6.00 Build 0)  -->
<svg version="1.1" id="Layer_1" xmlns="http://www.w3.org/2000/svg" xmlns:xlink="http://www.w3.org/1999/xlink" x="0px" y="0px" width="65px" height="65px"
	 viewBox="0 0 65 65" style="enable-background:new 0 0 65 65;" xml:space="preserve">
<style type="text/css">
	.st0{fill:#FFFFFF;}
</style>
<g id="XMLID_591_">
	<rect id="XMLID_820_" x="7.2" y="49.4" class="st0" width="19.8" height="1.2"/>
	<rect id="XMLID_819_" x="31.9" y="49.4" class="st0" width="1.2" height="5.4"/>
	<rect id="XMLID_818_" x="38.1" y="49.4" class="st0" width="1.2" height="5.4"/>
	<rect id="XMLID_817_" x="44.2" y="49.4" class="st0" width="1.2" height="5.4"/>
	<rect id="XMLID_816_" x="50.4" y="49.4" class="st0" width="1.2" height="5.4"/>
	<rect id="XMLID_815_" x="56.6" y="49.4" class="st0" width="1.2" height="5.4"/>
	<path id="XMLID_592_" class="st0" d="M0,62.9v-1.2h1V42.4l14.4-7.2l2.1-23.9h9.3l2,27.4l7.1-3.6l2.1-33.1h9.4l2,36.7l14.4-7.2v30.2
		H65v1.2H0z M26.9,61.7h35.8v-2.9H26.9V61.7z M8.4,61.7h17.3v-8.1H8.4V61.7z M2.3,61.7h5l0-2.9h-5V61.7z M26.9,57.6h35.8V33.5
		L42.2,43.8V33.5L21.6,43.8V33.5L2.3,43.2v14.5h5v-5.1h19.7V57.6z M43.4,41.8l4.9-2.5l-1.5-27.8h-8.1l-1.4,23.1l6.1-3.1V41.8z
		 M22.8,41.8l4.9-2.5l-1.4-18.6h-8.4l-1.2,13.8l6.1-3V41.8z M18,19.6h8.2l-0.2-2.9h-7.8L18,19.6z M18.4,15.4H26l-0.2-2.9h-7.1
		L18.4,15.4z M38.8,10.3h7.9l-0.2-2.9H39L38.8,10.3z M39.1,6.2h7.4l-0.2-2.9h-7.1L39.1,6.2z"/>
</g>
</svg>
