<?xml version="1.0" encoding="utf-8"?>
<!-- Generator: Adobe Illustrator 19.0.0, SVG Export Plug-In . SVG Version: 6.00 Build 0)  -->
<svg version="1.1" id="Layer_1" xmlns="http://www.w3.org/2000/svg" xmlns:xlink="http://www.w3.org/1999/xlink" x="0px" y="0px" width="65px" height="65px"
	 viewBox="0 0 65 65" style="enable-background:new 0 0 65 65;" xml:space="preserve">
<style type="text/css">
	.st0{fill:#333085;}
</style>
<g id="XMLID_863_">
	<g id="XMLID_943_">
		<path id="XMLID_934_" class="st0" d="M32.5,64.6c-17.7,0-32.1-14.4-32.1-32.1S14.8,0.4,32.5,0.4s32.1,14.4,32.1,32.1
			S50.2,64.6,32.5,64.6z M32.5,1.9C15.7,1.9,2,15.7,2,32.5s13.7,30.6,30.5,30.6s30.6-13.7,30.6-30.6S49.3,1.9,32.5,1.9z"/>
	</g>
	<g id="XMLID_939_">
		<path id="XMLID_931_" class="st0" d="M32.5,64.6c-10.9,0-19.7-14.4-19.7-32.1S21.6,0.4,32.5,0.4s19.7,14.4,19.7,32.1
			S43.4,64.6,32.5,64.6z M32.5,1.9c-10,0-18.2,13.7-18.2,30.6s8.2,30.6,18.2,30.6s18.2-13.7,18.2-30.6S42.5,1.9,32.5,1.9z"/>
	</g>
	<g id="XMLID_937_">
		<path id="XMLID_928_" class="st0" d="M25,15.5c-0.4,0-0.8-0.3-0.8-0.8s0.3-0.8,0.8-0.8h33.3c0.4,0,0.8,0.3,0.8,0.8
			s-0.3,0.8-0.8,0.8H25z"/>
	</g>
	<g id="XMLID_929_">
		<path id="XMLID_927_" class="st0" d="M6.7,15.5c-0.4,0-0.8-0.3-0.8-0.8s0.3-0.8,0.8-0.8h10.2c0.4,0,0.8,0.3,0.8,0.8
			s-0.3,0.8-0.8,0.8H6.7z"/>
	</g>
	<g id="XMLID_870_">
		<path id="XMLID_926_" class="st0" d="M47.9,51.5c-0.4,0-0.8-0.3-0.8-0.8s0.3-0.8,0.8-0.8H58c0.4,0,0.8,0.3,0.8,0.8
			s-0.3,0.8-0.8,0.8H47.9z"/>
	</g>
	<g id="XMLID_868_">
		<path id="XMLID_925_" class="st0" d="M6.7,51.5c-0.4,0-0.8-0.3-0.8-0.8s0.3-0.8,0.8-0.8h33c0.4,0,0.8,0.3,0.8,0.8
			s-0.3,0.8-0.8,0.8H6.7z"/>
	</g>
	<g id="XMLID_866_">
		<path id="XMLID_924_" class="st0" d="M1.2,33.3c-0.4,0-0.8-0.3-0.8-0.8s0.3-0.8,0.8-0.8h57.1c0.4,0,0.8,0.3,0.8,0.8
			s-0.3,0.8-0.8,0.8H1.2z"/>
	</g>
	<g id="XMLID_862_">
		<path id="XMLID_923_" class="st0" d="M32.7,64.6c-0.4,0-0.8-0.3-0.8-0.8V1.2c0-0.4,0.3-0.8,0.8-0.8s0.8,0.3,0.8,0.8v62.6
			C33.5,64.3,33.1,64.6,32.7,64.6z"/>
	</g>
</g>
</svg>
