<?xml version="1.0" encoding="utf-8"?>
<!-- Generator: Adobe Illustrator 19.0.0, SVG Export Plug-In . SVG Version: 6.00 Build 0)  -->
<svg version="1.1" id="Layer_1" xmlns="http://www.w3.org/2000/svg" xmlns:xlink="http://www.w3.org/1999/xlink" x="0px" y="0px" width="65px" height="65px"
	 viewBox="0 0 65 65" style="enable-background:new 0 0 65 65;" xml:space="preserve">
<style type="text/css">
	.st0{fill:#FFFFFF;}
</style>
<g id="XMLID_745_">
	<path id="XMLID_775_" class="st0" d="M14.5,35.2c0.3,0,0.5-0.1,0.7-0.3c0.2-0.2,0.3-0.5,0.3-0.7c0-0.3-0.1-0.5-0.3-0.7
		c-0.2-0.2-0.5-0.3-0.7-0.3c-0.3,0-0.5,0.1-0.7,0.3c-0.2,0.2-0.3,0.5-0.3,0.7c0,0.3,0.1,0.5,0.3,0.7C14,35.1,14.3,35.2,14.5,35.2z"
		/>
	<path id="XMLID_774_" class="st0" d="M14.5,34.8c-0.2,0-0.3-0.1-0.5-0.2c-0.1-0.1-0.2-0.3-0.2-0.5c0-0.2,0.1-0.3,0.2-0.5
		c0.1-0.1,0.3-0.2,0.5-0.2s0.3,0.1,0.5,0.2c0.1,0.1,0.2,0.3,0.2,0.5c0,0.2-0.1,0.3-0.2,0.5C14.9,34.8,14.7,34.8,14.5,34.8z"/>
	<path id="XMLID_773_" class="st0" d="M11.2,39.7c0.3,0,0.5-0.1,0.7-0.3c0.2-0.2,0.3-0.5,0.3-0.7s-0.1-0.5-0.3-0.7
		c-0.2-0.2-0.5-0.3-0.7-0.3c-0.3,0-0.5,0.1-0.7,0.3c-0.2,0.2-0.3,0.5-0.3,0.7s0.1,0.5,0.3,0.7C10.6,39.6,10.9,39.7,11.2,39.7z"/>
	<path id="XMLID_772_" class="st0" d="M11.2,39.3c-0.2,0-0.3-0.1-0.5-0.2c-0.1-0.1-0.2-0.3-0.2-0.5c0-0.2,0.1-0.3,0.2-0.5
		c0.1-0.1,0.3-0.2,0.5-0.2s0.3,0.1,0.5,0.2c0.1,0.1,0.2,0.3,0.2,0.5c0,0.2-0.1,0.3-0.2,0.5C11.5,39.3,11.3,39.3,11.2,39.3z"/>
	<path id="XMLID_771_" class="st0" d="M52.7,35.2c0.3,0,0.5-0.1,0.7-0.3c0.2-0.2,0.3-0.5,0.3-0.7c0-0.3-0.1-0.5-0.3-0.7
		c-0.2-0.2-0.5-0.3-0.7-0.3c-0.3,0-0.5,0.1-0.7,0.3c-0.2,0.2-0.3,0.5-0.3,0.7c0,0.3,0.1,0.5,0.3,0.7C52.2,35.1,52.4,35.2,52.7,35.2z
		"/>
	<path id="XMLID_770_" class="st0" d="M52.7,34.8c-0.2,0-0.3-0.1-0.5-0.2c-0.1-0.1-0.2-0.3-0.2-0.5s0.1-0.3,0.2-0.5
		c0.1-0.1,0.3-0.2,0.5-0.2s0.3,0.1,0.5,0.2c0.1,0.1,0.2,0.3,0.2,0.5s-0.1,0.3-0.2,0.5C53.1,34.8,52.9,34.8,52.7,34.8z"/>
	<path id="XMLID_769_" class="st0" d="M50.5,31.9c0.3,0,0.5-0.1,0.7-0.3c0.2-0.2,0.3-0.5,0.3-0.7c0-0.3-0.1-0.5-0.3-0.7
		c-0.2-0.2-0.5-0.3-0.7-0.3s-0.5,0.1-0.7,0.3c-0.2,0.2-0.3,0.5-0.3,0.7c0,0.3,0.1,0.5,0.3,0.7C49.9,31.8,50.2,31.9,50.5,31.9z"/>
	<path id="XMLID_768_" class="st0" d="M50.5,31.5c-0.2,0-0.3-0.1-0.5-0.2c-0.1-0.1-0.2-0.3-0.2-0.5s0.1-0.3,0.2-0.5
		c0.1-0.1,0.3-0.2,0.5-0.2s0.3,0.1,0.5,0.2c0.1,0.1,0.2,0.3,0.2,0.5s-0.1,0.3-0.2,0.5C50.8,31.4,50.6,31.5,50.5,31.5z"/>
	<path id="XMLID_767_" class="st0" d="M50.5,40.9c0.3,0,0.5-0.1,0.7-0.3c0.2-0.2,0.3-0.5,0.3-0.7c0-0.3-0.1-0.5-0.3-0.7
		c-0.2-0.2-0.5-0.3-0.7-0.3s-0.5,0.1-0.7,0.3c-0.2,0.2-0.3,0.5-0.3,0.7c0,0.3,0.1,0.5,0.3,0.7C49.9,40.7,50.2,40.9,50.5,40.9z"/>
	<path id="XMLID_766_" class="st0" d="M50.5,40.5c-0.2,0-0.3-0.1-0.5-0.2c-0.1-0.1-0.2-0.3-0.2-0.5c0-0.2,0.1-0.3,0.2-0.5
		c0.1-0.1,0.3-0.2,0.5-0.2s0.3,0.1,0.5,0.2c0.1,0.1,0.2,0.3,0.2,0.5c0,0.2-0.1,0.3-0.2,0.5C50.8,40.4,50.6,40.5,50.5,40.5z"/>
	<path id="XMLID_765_" class="st0" d="M52.7,45.3c0.3,0,0.5-0.1,0.7-0.3c0.2-0.2,0.3-0.5,0.3-0.7s-0.1-0.5-0.3-0.7
		c-0.2-0.2-0.5-0.3-0.7-0.3c-0.3,0-0.5,0.1-0.7,0.3c-0.2,0.2-0.3,0.5-0.3,0.7s0.1,0.5,0.3,0.7C52.2,45.2,52.4,45.3,52.7,45.3z"/>
	<path id="XMLID_764_" class="st0" d="M52.7,44.9c-0.2,0-0.3-0.1-0.5-0.2c-0.1-0.1-0.2-0.3-0.2-0.5c0-0.2,0.1-0.3,0.2-0.5
		c0.1-0.1,0.3-0.2,0.5-0.2s0.3,0.1,0.5,0.2c0.1,0.1,0.2,0.3,0.2,0.5c0,0.2-0.1,0.3-0.2,0.5C53.1,44.9,52.9,44.9,52.7,44.9z"/>
	<path id="XMLID_763_" class="st0" d="M33.6,38.6c0.3,0,0.5-0.1,0.7-0.3c0.2-0.2,0.3-0.5,0.3-0.7c0-0.3-0.1-0.5-0.3-0.7
		c-0.2-0.2-0.5-0.3-0.7-0.3c-0.3,0-0.5,0.1-0.7,0.3c-0.2,0.2-0.3,0.5-0.3,0.7c0,0.3,0.1,0.5,0.3,0.7C33.1,38.5,33.3,38.6,33.6,38.6z
		"/>
	<path id="XMLID_762_" class="st0" d="M33.6,38.2c-0.2,0-0.3-0.1-0.5-0.2C33,37.9,33,37.7,33,37.6c0-0.2,0.1-0.3,0.2-0.5
		c0.1-0.1,0.3-0.2,0.5-0.2s0.3,0.1,0.5,0.2c0.1,0.1,0.2,0.3,0.2,0.5c0,0.2-0.1,0.3-0.2,0.5C34,38.1,33.8,38.2,33.6,38.2z"/>
	<path id="XMLID_761_" class="st0" d="M32.5,44.2c0.3,0,0.5-0.1,0.7-0.3c0.2-0.2,0.3-0.5,0.3-0.7s-0.1-0.5-0.3-0.7
		c-0.2-0.2-0.5-0.3-0.7-0.3s-0.5,0.1-0.7,0.3c-0.2,0.2-0.3,0.5-0.3,0.7c0,0.3,0.1,0.5,0.3,0.7C32,44.1,32.2,44.2,32.5,44.2z"/>
	<path id="XMLID_760_" class="st0" d="M32.5,43.8c-0.2,0-0.3-0.1-0.5-0.2c-0.1-0.1-0.2-0.3-0.2-0.5c0-0.2,0.1-0.3,0.2-0.5
		c0.1-0.1,0.3-0.2,0.5-0.2s0.3,0.1,0.5,0.2c0.1,0.1,0.2,0.3,0.2,0.5s-0.1,0.3-0.2,0.5C32.8,43.8,32.7,43.8,32.5,43.8z"/>
	<path id="XMLID_759_" class="st0" d="M14.5,44.2c0.3,0,0.5-0.1,0.7-0.3c0.2-0.2,0.3-0.5,0.3-0.7c0-0.3-0.1-0.5-0.3-0.7
		c-0.2-0.2-0.5-0.3-0.7-0.3c-0.3,0-0.5,0.1-0.7,0.3c-0.2,0.2-0.3,0.5-0.3,0.7c0,0.3,0.1,0.5,0.3,0.7C14,44.1,14.3,44.2,14.5,44.2z"
		/>
	<path id="XMLID_758_" class="st0" d="M14.5,43.8c-0.2,0-0.3-0.1-0.5-0.2c-0.1-0.1-0.2-0.3-0.2-0.5c0-0.2,0.1-0.3,0.2-0.5
		c0.1-0.1,0.3-0.2,0.5-0.2s0.3,0.1,0.5,0.2c0.1,0.1,0.2,0.3,0.2,0.5c0,0.2-0.1,0.3-0.2,0.5C14.9,43.8,14.7,43.8,14.5,43.8z"/>
	<path id="XMLID_746_" class="st0" d="M59.5,60.7c-0.4,0-0.7-0.3-0.7-0.7v-1.6H6.2V60c0,0.4-0.3,0.7-0.7,0.7S4.9,60.4,4.9,60v-1.6
		H4.5c-2.3,0-4.1-1.8-4.1-4V29.7c0-2.2,1.8-4,4-4h2.7V7.2c0-0.9-0.7-1.6-1.6-1.6C5.2,5.6,4.9,5.3,4.9,5s0.3-0.7,0.7-0.7h15.7
		c0.4,0,0.7,0.3,0.7,0.7s-0.3,0.7-0.7,0.7c-0.9,0-1.6,0.7-1.6,1.6v18.4h6.6V7.2c0-0.9-0.7-1.6-1.6-1.6C24.3,5.6,24,5.3,24,5
		s0.3-0.7,0.7-0.7h15.7C40.7,4.3,41,4.6,41,5s-0.3,0.7-0.7,0.7c-0.9,0-1.6,0.7-1.6,1.6v18.4h6.6V7.2c0-0.9-0.7-1.6-1.6-1.6
		c-0.4,0-0.7-0.3-0.7-0.7s0.3-0.7,0.7-0.7h15.7c0.4,0,0.7,0.3,0.7,0.7s-0.3,0.7-0.7,0.7c-0.9,0-1.6,0.7-1.6,1.6v18.4h2.7
		c2.2,0,4,1.8,4,4v24.7c0,2.2-1.8,4-4,4h-0.4l-0.1,0.4V60C60.1,60.4,59.8,60.7,59.5,60.7z M4.4,27c-1.5,0-2.7,1.2-2.7,2.7v24.7
		c0,1.5,1.2,2.7,2.7,2.7h56.2c1.5,0,2.7-1.2,2.7-2.7V29.7c0-1.5-1.2-2.7-2.7-2.7h-2.7v19.6c0,3.5-2.8,6.3-6.3,6.3
		c-3.5,0-6.3-2.8-6.3-6.3V27h-6.6v19.6c0,3.5-2.8,6.3-6.3,6.3s-6.3-2.8-6.3-6.3V27h-6.6v19.6c0,3.5-2.8,6.3-6.3,6.3
		c-3.5,0-6.3-2.8-6.3-6.3V27H4.4z M46.6,46.5c0,2.7,2.2,5,5,5s5-2.2,5-5V27h-9.9V46.5z M27.5,46.5c0,2.7,2.2,5,5,5s5-2.2,5-5V33.7
		l-0.3-0.1c-0.5-0.1-0.9-0.4-1.2-0.5c-0.4-0.3-0.8-0.5-1.5-0.5c-0.8,0-1.1,0.2-1.5,0.5c-0.5,0.3-1.1,0.7-2.2,0.7s-1.7-0.3-2.2-0.7
		c-0.1-0.1-0.2-0.1-0.3-0.2l-0.6-0.3V46.5z M8.4,46.5c0,2.7,2.2,5,5,5s5-2.2,5-5V31.4l-0.3-0.1c-0.5-0.1-0.9-0.4-1.2-0.6
		c-0.4-0.3-0.8-0.5-1.5-0.5c-0.8,0-1.1,0.2-1.5,0.5c-0.5,0.3-1.1,0.7-2.2,0.7c-1.1,0-1.7-0.3-2.2-0.7c-0.1-0.1-0.2-0.1-0.3-0.2
		l-0.6-0.3V46.5z M34.4,31.3c1.1,0,1.7,0.3,2.2,0.7c0.1,0.1,0.2,0.1,0.3,0.2l0.6,0.3V27h-9.9v4.3l0.3,0.1c0.5,0.1,0.9,0.4,1.2,0.6
		c0.4,0.3,0.8,0.5,1.5,0.5c0.8,0,1.1-0.2,1.5-0.5C32.7,31.6,33.3,31.3,34.4,31.3z M15.3,29c1.1,0,1.7,0.3,2.2,0.7
		c0.1,0.1,0.2,0.1,0.3,0.2l0.6,0.3V27H8.4v2.1l0.3,0.1c0.5,0.1,0.9,0.4,1.2,0.6c0.4,0.3,0.8,0.5,1.5,0.5c0.8,0,1.1-0.2,1.5-0.5
		C13.6,29.4,14.2,29,15.3,29z M46.6,25.7h9.9v-2.1l-0.3-0.1c-0.5-0.1-0.9-0.4-1.2-0.5c-0.4-0.3-0.8-0.5-1.5-0.5s-1.1,0.2-1.5,0.5
		c-0.5,0.3-1.1,0.7-2.2,0.7c-1.1,0-1.7-0.3-2.2-0.7c-0.1-0.1-0.2-0.1-0.3-0.2l-0.6-0.3V25.7z M27.3,6.2c0.1,0.3,0.2,0.7,0.2,1v18.4
		h9.9V7.2c0-0.4,0.1-0.7,0.2-1l0.2-0.5H27.1L27.3,6.2z M8.2,6.2c0.1,0.3,0.2,0.7,0.2,1v18.4h9.9V7.2c0-0.4,0.1-0.7,0.2-1l0.2-0.5H8
		L8.2,6.2z M53.5,21.2c1.1,0,1.7,0.3,2.2,0.7c0.1,0.1,0.2,0.1,0.3,0.2l0.6,0.3V7.2c0-0.4,0.1-0.7,0.2-1L57,5.6H46.2l0.2,0.5
		c0.1,0.3,0.2,0.7,0.2,1v14l0.3,0.1c0.5,0.1,0.9,0.4,1.2,0.5c0.4,0.3,0.8,0.5,1.5,0.5c0.8,0,1.1-0.2,1.5-0.5
		C51.8,21.5,52.3,21.2,53.5,21.2z"/>
</g>
</svg>
