<?xml version="1.0" encoding="UTF-8"?>
<!-- Generator: Adobe Illustrator 19.0.0, SVG Export Plug-In . SVG Version: 6.00 Build 0)  -->
<svg version="1.1" id="Layer_1" xmlns="http://www.w3.org/2000/svg" xmlns:xlink="http://www.w3.org/1999/xlink" x="0px" y="0px" width="120px" height="120px" viewBox="0 0 120 120" style="enable-background:new 0 0 120 120;" xml:space="preserve">
<style type="text/css">
	.st0{fill-rule:evenodd;clip-rule:evenodd;fill:#F0F0F0;}
	.st1{fill:none;stroke:#333085;stroke-width:1.5;stroke-linecap:round;stroke-linejoin:round;stroke-miterlimit:10;}
	.st2{fill:#333085;}
</style>
<path id="XMLID_11_" class="st0" d="M59.9,80.3c14.9-47.8,56.5-40.1,56.5-40.1C118.6,46.4,120,53,120,60c0,32.6-26.9,59.1-60,59.1  C26.9,119.1,0,92.6,0,60c0-7,1.3-13.7,3.6-19.9C3.6,40.1,45.1,32.4,59.9,80.3z M59.9,66.4c18.6-39.1,50-39.1,50-39.1  C99.1,11.3,80.9,0.9,60,0.9c-20.8,0-39.1,10.4-49.9,26.3C10.1,27.2,41.3,27.3,59.9,66.4z"/>
<g id="XMLID_27_">
	<circle id="XMLID_17_" class="st1" cx="68.6" cy="27.4" r="6.5"/>
	<circle id="XMLID_16_" class="st1" cx="96.3" cy="50.5" r="7.8"/>
	<circle id="XMLID_15_" class="st1" cx="82.9" cy="93.7" r="5.3"/>
	<circle id="XMLID_14_" class="st1" cx="22.8" cy="78.3" r="6.9"/>
	<circle id="XMLID_13_" class="st1" cx="29.7" cy="35.2" r="8.8"/>
	<circle id="XMLID_12_" class="st1" cx="58" cy="61.4" r="20.5"/>
	<line id="XMLID_10_" class="st1" x1="35.8" y1="41.5" x2="41.7" y2="47.8"/>
	<line id="XMLID_9_" class="st1" x1="67.2" y1="33.7" x2="64" y2="41.9"/>
	<line id="XMLID_8_" class="st1" x1="88.8" y1="54" x2="78" y2="57.6"/>
	<line id="XMLID_7_" class="st1" x1="79.2" y1="89.9" x2="69.5" y2="78.4"/>
	<line id="XMLID_6_" class="st1" x1="29.5" y1="76.7" x2="40.7" y2="72.3"/>
</g>
<g>
	<circle id="XMLID_5_" class="st2" cx="47.2" cy="59.7" r="5.2"/>
	<circle id="XMLID_4_" class="st2" cx="60.2" cy="58.3" r="3.8"/>
	<circle id="XMLID_3_" class="st2" cx="59.7" cy="69.2" r="3.3"/>
</g>
</svg>