<?xml version="1.0" encoding="utf-8"?>
<!-- Generator: Adobe Illustrator 19.0.0, SVG Export Plug-In . SVG Version: 6.00 Build 0)  -->
<svg version="1.1" id="Layer_1" xmlns="http://www.w3.org/2000/svg" xmlns:xlink="http://www.w3.org/1999/xlink" x="0px" y="0px"
	 viewBox="-27 28 65 65" style="enable-background:new -27 28 65 65;" xml:space="preserve">
<style type="text/css">
	.st0{fill:#FFFFFF;}
</style>
<g id="XMLID_1_">
	<g id="XMLID_11_">
		<g id="XMLID_13_">
			<path id="XMLID_1297_" class="st0" d="M5.6,93C1.7,93-2.2,92.3-6,90.9c-14.6-5.5-23.2-20.7-20.5-36c0.1-0.7,0.7-1.1,1.4-1
				s1.1,0.7,1,1.4c-2.5,14.2,5.5,28.2,18.9,33.3c7.5,2.9,15.7,2.6,23-0.7c7.3-3.3,12.9-9.2,15.8-16.7c2.9-7.5,2.6-15.7-0.7-23
				s-9.2-12.9-16.7-15.8c-13-4.9-27.6-0.4-35.5,11c-0.4,0.5-1.1,0.7-1.7,0.3c-0.5-0.4-0.7-1.1-0.3-1.7C-12.8,29.6,3,24.7,17,30.1
				c8.1,3.1,14.5,9.1,18.1,17.1c3.6,7.9,3.8,16.7,0.7,24.9c-3.1,8.1-9.1,14.5-17.1,18.1C14.6,92,10.1,93,5.6,93z"/>
		</g>
	</g>
	<g id="XMLID_14_">
		<g id="XMLID_15_">
			<g id="XMLID_16_">
				<g id="XMLID_17_">
					<path id="XMLID_18_" class="st0" d="M-3.4,76.8c-0.2,0-0.4-0.1-0.6-0.2c-0.4-0.2-0.6-0.6-0.6-1V45.3c0-0.4,0.2-0.8,0.6-1
						c0.4-0.2,0.8-0.2,1.2,0l26.3,15.2c0.4,0.2,0.6,0.6,0.6,1s-0.2,0.8-0.6,1L-2.8,76.7C-3,76.8-3.2,76.8-3.4,76.8z M-2.2,47.4v26.2
						l22.6-13.1L-2.2,47.4z"/>
				</g>
			</g>
		</g>
	</g>
</g>
</svg>
